<?xml version="1.0" standalone="no"?>
<!DOCTYPE svg PUBLIC "-//W3C//DTD SVG 20010904//EN"
 "http://www.w3.org/TR/2001/REC-SVG-20010904/DTD/svg10.dtd">
<svg version="1.0" xmlns="http://www.w3.org/2000/svg"
 width="720.000000pt" height="720.000000pt" viewBox="0 0 720.000000 720.000000"
 preserveAspectRatio="xMidYMid meet">
<metadata>
Created by potrace 1.14, written by Peter Selinger 2001-2017
</metadata>
<g transform="translate(0.000000,720.000000) scale(0.100000,-0.100000)"
fill="#000000" stroke="none">
<path d="M4986 6745 c-16 -8 -47 -18 -70 -21 -84 -12 -216 -123 -529 -444
l-198 -202 -107 12 c-109 12 -474 10 -522 -4 -20 -6 -36 1 -84 38 -53 42 -64
46 -113 46 -60 0 -104 -16 -176 -62 -42 -27 -65 -33 -161 -44 -61 -8 -145 -23
-186 -34 -171 -47 -171 -47 -221 -13 -120 82 -518 277 -794 389 -118 48 -122
48 -248 52 l-129 4 -31 -29 c-18 -17 -47 -40 -64 -52 -19 -13 -36 -35 -41 -54
-7 -28 -13 -33 -49 -38 -78 -10 -91 -33 -132 -239 -47 -234 -55 -330 -54 -610
1 -341 31 -579 104 -805 l28 -89 -49 -143 c-54 -156 -107 -360 -142 -548 -18
-100 -22 -155 -22 -330 0 -231 10 -310 65 -489 49 -160 101 -261 163 -320 54
-51 54 -52 80 -166 30 -129 94 -298 146 -384 44 -74 138 -172 181 -190 24 -10
40 -11 62 -4 16 6 32 7 37 2 4 -5 4 -108 -2 -229 -5 -121 -7 -341 -5 -490 6
-305 22 -409 97 -639 67 -205 123 -283 187 -260 27 9 28 13 31 77 2 44 7 70
16 73 7 3 33 -2 57 -10 56 -20 84 -20 103 -1 19 20 15 47 -34 195 -64 194 -90
339 -130 735 -16 151 -19 230 -14 323 8 141 0 134 117 97 139 -44 263 -29 421
52 50 26 114 67 143 90 29 24 58 43 64 43 6 0 64 -29 128 -64 64 -36 152 -77
195 -92 67 -23 77 -29 61 -38 -64 -38 -84 -67 -120 -177 -68 -212 -146 -497
-244 -894 -55 -220 -109 -438 -120 -485 -12 -47 -32 -129 -45 -183 l-23 -97
1070 0 c958 0 1069 2 1063 15 -13 36 -126 394 -138 437 -11 45 -11 49 12 73
20 21 22 28 12 49 -6 14 -25 32 -41 41 -21 10 -33 27 -40 53 -26 94 -41 192
-52 319 -23 288 23 870 71 894 8 4 47 19 85 33 39 14 94 44 123 66 29 22 59
40 66 40 8 0 47 -33 87 -73 115 -113 218 -157 369 -157 41 0 81 -4 88 -8 23
-15 -8 -798 -38 -971 -14 -75 -12 -165 2 -179 22 -22 66 -14 95 18 14 17 30
30 35 30 4 0 8 -29 8 -65 0 -60 2 -66 25 -77 20 -9 33 -8 62 5 21 9 56 19 78
22 22 4 64 19 93 35 45 24 57 26 82 17 40 -15 75 3 91 46 8 24 27 43 65 66 73
43 118 100 150 187 23 65 26 84 21 147 -8 95 -47 246 -85 330 l-31 68 9 422
c13 586 18 691 46 857 33 206 45 382 43 635 l-2 220 36 77 c61 128 55 152 -73
274 l-57 54 -6 115 c-11 209 -84 468 -204 730 -62 136 -64 144 -74 254 -16
202 -64 387 -194 748 -123 343 -182 489 -225 563 -21 36 -58 101 -83 145 -28
52 -56 87 -77 100 -18 11 -52 39 -75 63 -47 46 -72 51 -119 27z m-51 -922 c66
-14 84 -15 127 -3 49 12 52 12 68 -10 27 -35 52 -215 33 -233 -3 -4 -19 15
-34 42 -16 27 -40 58 -55 70 -46 36 -94 23 -94 -26 0 -17 -6 -23 -23 -23 -13
0 -31 -6 -41 -13 -18 -13 -16 -16 25 -55 35 -33 52 -42 81 -42 20 0 39 6 42
13 3 8 13 2 28 -17 13 -17 34 -40 47 -53 l24 -23 -12 -142 c-6 -78 -13 -144
-16 -146 -2 -2 -18 12 -35 31 -17 20 -76 73 -131 118 -58 48 -98 88 -95 95 7
19 -37 50 -81 59 -20 3 -50 17 -67 29 -17 13 -46 29 -63 36 -18 7 -33 16 -33
21 0 4 26 13 58 19 62 13 102 33 102 53 0 7 -13 21 -30 30 -16 10 -30 22 -30
27 0 9 36 20 108 35 42 9 42 34 1 86 l-31 39 26 0 c14 0 60 -8 101 -17z
m-2870 -11 c12 -9 127 -140 178 -203 35 -44 48 -79 28 -79 -18 0 -177 -158
-221 -219 -47 -65 -49 -66 -96 -52 -31 9 -64 -1 -64 -20 0 -5 18 -16 40 -25
23 -9 39 -19 38 -23 -2 -3 -12 -23 -23 -44 -17 -34 -23 -38 -47 -33 -23 4 -32
0 -50 -24 -24 -33 -43 -38 -52 -15 -3 8 -16 15 -30 15 -36 0 -40 16 -14 53 18
24 23 44 22 84 -2 55 -27 122 -51 136 -11 7 -1 15 37 33 57 26 61 45 11 55
-17 4 -34 9 -37 11 -9 9 61 70 106 92 25 13 78 29 118 36 57 11 77 19 89 37 9
13 25 23 39 23 17 0 24 6 24 19 0 25 -84 81 -121 81 -21 0 -29 7 -37 29 l-11
30 47 4 c26 2 52 4 57 5 6 1 15 -2 20 -6z m-177 -118 c7 -2 10 -9 6 -15 -4 -7
1 -18 12 -26 16 -12 17 -15 4 -23 -10 -6 -16 -5 -18 3 -1 7 -19 20 -40 29 -20
9 -46 23 -57 31 -18 14 -15 15 30 10 28 -2 56 -6 63 -9z m1896 -1371 c8 -21
-10 -33 -51 -33 -26 0 -33 4 -33 19 0 32 73 45 84 14z m8 -72 c16 -6 28 -23
36 -49 20 -64 130 -281 188 -368 29 -45 81 -112 115 -149 33 -37 58 -69 56
-72 -3 -3 -47 2 -99 10 -51 9 -128 19 -170 22 -84 7 -118 27 -188 108 -18 20
-36 37 -41 37 -20 0 -20 -32 0 -73 31 -65 30 -67 -49 -67 -38 0 -70 3 -70 8 0
4 18 95 41 202 22 107 47 229 54 270 22 114 24 118 43 123 30 8 60 7 84 -2z
m-768 -264 c42 -159 123 -343 179 -404 30 -34 61 -29 87 12 24 39 25 40 60 20
14 -8 42 -14 62 -15 24 0 47 -9 68 -26 24 -21 44 -27 93 -31 34 -2 115 -10
180 -19 64 -8 138 -12 165 -8 26 3 105 1 176 -5 112 -10 131 -9 146 4 23 21
31 19 69 -13 l33 -27 -1 -126 c0 -166 -44 -428 -85 -507 -22 -42 -59 -78 -105
-101 -22 -12 -41 -26 -41 -31 0 -17 56 -11 114 11 31 11 60 18 66 14 21 -13
-14 -424 -38 -446 -18 -17 -250 -100 -359 -130 -68 -18 -123 -36 -123 -40 0
-4 9 -9 19 -12 16 -4 19 -11 14 -44 -4 -32 0 -45 22 -71 l27 -32 -141 0 c-80
0 -141 -4 -141 -9 0 -5 12 -19 26 -30 33 -26 114 -28 167 -6 20 8 47 15 61 15
23 0 24 -4 31 -72 4 -40 11 -91 15 -113 6 -28 5 -42 -3 -47 -19 -12 -437 -10
-437 2 0 6 7 24 15 40 21 41 65 164 65 183 0 9 11 28 25 43 18 19 25 38 25 65
0 35 3 40 37 54 61 26 29 36 -72 23 -50 -6 -211 -12 -360 -12 -222 -1 -287 2
-365 17 -52 10 -144 28 -205 39 -135 26 -268 68 -354 113 -77 41 -227 166
-237 198 -4 12 -17 35 -30 50 -29 35 -42 83 -46 167 l-3 65 30 -3 c165 -14
207 -14 203 -1 -2 7 -26 18 -54 24 -64 15 -88 28 -119 69 -31 41 -31 58 0 120
14 27 25 57 25 67 0 26 -48 155 -86 230 -27 54 -33 79 -35 136 -1 39 1 75 5
82 10 16 56 14 76 -4 21 -19 94 -21 300 -7 91 6 212 11 269 12 l104 0 53 -41
54 -41 52 12 c62 15 86 26 113 52 11 10 29 25 40 33 19 13 20 26 23 316 2 170
7 298 11 293 5 -5 21 -53 35 -107z m-934 -154 c12 -37 40 -106 61 -152 21 -46
36 -87 33 -92 -3 -5 -23 -9 -44 -9 -37 0 -40 2 -49 38 -6 20 -17 80 -26 132
-27 169 -16 206 25 83z m-157 -272 c23 -39 22 -41 -13 -41 -28 0 -30 3 -30 35
0 43 19 46 43 6z m2297 -1756 c0 -8 -7 -15 -15 -15 -8 0 -15 7 -15 15 0 8 7
15 15 15 8 0 15 -7 15 -15z m-144 -252 c142 -253 132 -224 136 -408 l3 -160
-615 -3 c-338 -1 -620 0 -627 2 -14 6 23 161 52 216 39 76 257 450 263 450 3
0 13 -7 23 -16 13 -12 59 -17 210 -24 302 -14 421 -13 447 6 23 16 30 58 12
69 -5 3 -10 13 -10 21 0 30 19 2 106 -153z m-264 -705 c20 -16 24 -36 14 -66
-6 -19 -14 -23 -39 -20 -24 2 -34 10 -42 32 -8 24 -6 31 14 47 27 22 32 23 53
7z m-358 -14 c33 -32 5 -94 -43 -94 -43 0 -70 78 -33 99 25 15 58 13 76 -5z
m370 -330 c21 -20 20 -53 -1 -76 -20 -22 -41 -23 -65 -1 -22 20 -23 51 -1 75
20 22 46 23 67 2z m-394 -34 c24 -24 25 -47 3 -72 -39 -43 -120 1 -94 51 23
42 61 51 91 21z"/>
<path d="M4822 5580 c-43 -18 -23 -44 38 -52 30 -4 61 -5 68 -3 14 5 17 41 4
49 -19 11 -88 15 -110 6z"/>
<path d="M1890 5407 c-30 -15 -38 -43 -13 -51 23 -7 106 17 111 32 2 7 -8 16
-23 22 -34 13 -45 12 -75 -3z"/>
<path d="M1913 5334 c-30 -21 -29 -42 1 -50 30 -7 88 24 84 46 -4 21 -58 23
-85 4z"/>
<path d="M4052 3462 c-9 -7 -8 -13 8 -27 11 -10 20 -28 20 -41 0 -13 5 -26 10
-29 6 -4 22 -30 36 -58 24 -46 26 -59 20 -120 -10 -110 -80 -227 -160 -270
l-41 -22 30 -3 c84 -10 164 50 215 160 29 63 34 83 34 153 0 70 -4 87 -31 141
-31 59 -91 124 -116 124 -7 0 -18 -4 -25 -8z"/>
<path d="M2589 3399 c-15 -9 -16 -6 38 -78 35 -46 53 -113 53 -197 0 -63 -17
-110 -60 -162 -36 -44 -37 -52 -7 -52 35 0 94 49 119 100 31 62 32 203 1 271
-35 79 -110 140 -144 118z"/>
<path d="M3564 3373 c-31 -33 -64 -140 -64 -207 0 -65 36 -141 91 -190 63 -58
118 -42 61 17 -40 41 -82 132 -82 177 0 39 20 116 44 172 9 21 16 42 16 48 0
20 -41 10 -66 -17z"/>
<path d="M2154 3358 c-31 -15 -70 -93 -82 -166 -10 -54 -8 -71 9 -127 16 -54
27 -71 73 -109 41 -35 61 -46 87 -46 l34 1 -36 32 c-47 41 -70 78 -91 145 -14
47 -15 62 -3 117 14 67 36 110 66 126 11 5 19 16 19 24 0 18 -44 19 -76 3z"/>
<path d="M3050 2460 c0 -5 18 -10 39 -10 22 0 43 5 46 10 4 6 -12 10 -39 10
-25 0 -46 -4 -46 -10z"/>
<path d="M3225 2460 c7 -12 100 -23 124 -15 40 12 20 20 -54 21 -41 1 -72 -2
-70 -6z"/>
</g>
</svg>
